<mxfile host="app.diagrams.net" modified="2023-01-24T12:19:11.444Z" agent="5.0 (Windows NT 10.0; Win64; x64) AppleWebKit/537.36 (KHTML, like Gecko) Chrome/109.0.0.0 Safari/537.36" etag="5htZjaHY4SX4jaJiHnZb" version="20.8.10" type="github">
  <diagram id="R2lEEEUBdFMjLlhIrx00" name="Page-1">
    <mxGraphModel dx="1687" dy="911" grid="1" gridSize="10" guides="1" tooltips="1" connect="1" arrows="1" fold="1" page="1" pageScale="1" pageWidth="850" pageHeight="1100" math="0" shadow="0" extFonts="Permanent Marker^https://fonts.googleapis.com/css?family=Permanent+Marker">
      <root>
        <mxCell id="0" />
        <mxCell id="1" parent="0" />
        <mxCell id="jTc0iQcsf2U8J7RTjWwW-6" value="SATCAT&lt;br&gt;(To Date Satellite Database)" style="shape=cylinder3;whiteSpace=wrap;html=1;boundedLbl=1;backgroundOutline=1;size=15;" vertex="1" parent="1">
          <mxGeometry x="640" y="380" width="90" height="120" as="geometry" />
        </mxCell>
        <mxCell id="jTc0iQcsf2U8J7RTjWwW-7" value="Upcoming Launches" style="shape=cylinder3;whiteSpace=wrap;html=1;boundedLbl=1;backgroundOutline=1;size=15;" vertex="1" parent="1">
          <mxGeometry x="740" y="27.5" width="90" height="110" as="geometry" />
        </mxCell>
        <mxCell id="jTc0iQcsf2U8J7RTjWwW-8" value="JSON FSP Configurations" style="shape=cylinder3;whiteSpace=wrap;html=1;boundedLbl=1;backgroundOutline=1;size=15;" vertex="1" parent="1">
          <mxGeometry x="560" y="30" width="90" height="105" as="geometry" />
        </mxCell>
        <mxCell id="jTc0iQcsf2U8J7RTjWwW-9" value="FSP Outputs" style="shape=cylinder3;whiteSpace=wrap;html=1;boundedLbl=1;backgroundOutline=1;size=15;" vertex="1" parent="1">
          <mxGeometry x="740" y="380" width="90" height="100" as="geometry" />
        </mxCell>
        <mxCell id="jTc0iQcsf2U8J7RTjWwW-19" style="edgeStyle=orthogonalEdgeStyle;rounded=0;orthogonalLoop=1;jettySize=auto;html=1;" edge="1" parent="1" source="jTc0iQcsf2U8J7RTjWwW-10" target="jTc0iQcsf2U8J7RTjWwW-15">
          <mxGeometry relative="1" as="geometry" />
        </mxCell>
        <mxCell id="jTc0iQcsf2U8J7RTjWwW-10" value="User Front End" style="swimlane;whiteSpace=wrap;html=1;" vertex="1" parent="1">
          <mxGeometry x="10" y="120" width="200" height="140" as="geometry" />
        </mxCell>
        <mxCell id="jTc0iQcsf2U8J7RTjWwW-11" value="End Date&lt;br&gt;Propogation Method&lt;br&gt;De-orbit Rate&lt;br&gt;Space Weather Configuration&lt;br&gt;Model Name&lt;br&gt;id (GUID Generator)" style="text;html=1;align=center;verticalAlign=middle;resizable=0;points=[];autosize=1;strokeColor=none;fillColor=none;" vertex="1" parent="jTc0iQcsf2U8J7RTjWwW-10">
          <mxGeometry x="10" y="35" width="180" height="100" as="geometry" />
        </mxCell>
        <mxCell id="jTc0iQcsf2U8J7RTjWwW-20" style="edgeStyle=orthogonalEdgeStyle;rounded=0;orthogonalLoop=1;jettySize=auto;html=1;" edge="1" parent="1" source="jTc0iQcsf2U8J7RTjWwW-13" target="jTc0iQcsf2U8J7RTjWwW-17">
          <mxGeometry relative="1" as="geometry" />
        </mxCell>
        <mxCell id="jTc0iQcsf2U8J7RTjWwW-13" value="FSP Visualiser" style="swimlane;whiteSpace=wrap;html=1;" vertex="1" parent="1">
          <mxGeometry x="10" y="390" width="200" height="140" as="geometry" />
        </mxCell>
        <mxCell id="jTc0iQcsf2U8J7RTjWwW-14" value="Model Name&lt;br&gt;Or&lt;br&gt;Pick Previous Configurations" style="text;html=1;align=center;verticalAlign=middle;resizable=0;points=[];autosize=1;strokeColor=none;fillColor=none;" vertex="1" parent="jTc0iQcsf2U8J7RTjWwW-13">
          <mxGeometry x="10" y="55" width="180" height="60" as="geometry" />
        </mxCell>
        <mxCell id="jTc0iQcsf2U8J7RTjWwW-16" value="ODL API" style="swimlane;whiteSpace=wrap;html=1;" vertex="1" parent="1">
          <mxGeometry x="330" y="200" width="200" height="240" as="geometry" />
        </mxCell>
        <mxCell id="jTc0iQcsf2U8J7RTjWwW-15" value="/POST" style="shape=process;whiteSpace=wrap;html=1;backgroundOutline=1;" vertex="1" parent="jTc0iQcsf2U8J7RTjWwW-16">
          <mxGeometry x="40" y="60" width="120" height="60" as="geometry" />
        </mxCell>
        <mxCell id="jTc0iQcsf2U8J7RTjWwW-17" value="/GET" style="shape=process;whiteSpace=wrap;html=1;backgroundOutline=1;" vertex="1" parent="jTc0iQcsf2U8J7RTjWwW-16">
          <mxGeometry x="40" y="140" width="120" height="60" as="geometry" />
        </mxCell>
        <mxCell id="jTc0iQcsf2U8J7RTjWwW-21" style="edgeStyle=orthogonalEdgeStyle;rounded=0;orthogonalLoop=1;jettySize=auto;html=1;entryX=0.5;entryY=1;entryDx=0;entryDy=0;entryPerimeter=0;startArrow=none;" edge="1" parent="1" source="jTc0iQcsf2U8J7RTjWwW-22" target="jTc0iQcsf2U8J7RTjWwW-9">
          <mxGeometry relative="1" as="geometry">
            <mxPoint x="459.9999999999998" y="600" as="targetPoint" />
            <Array as="points">
              <mxPoint x="785" y="570" />
            </Array>
          </mxGeometry>
        </mxCell>
        <mxCell id="jTc0iQcsf2U8J7RTjWwW-23" value="" style="edgeStyle=orthogonalEdgeStyle;rounded=0;orthogonalLoop=1;jettySize=auto;html=1;entryX=0;entryY=0.5;entryDx=0;entryDy=0;endArrow=none;" edge="1" parent="1" source="jTc0iQcsf2U8J7RTjWwW-17" target="jTc0iQcsf2U8J7RTjWwW-22">
          <mxGeometry relative="1" as="geometry">
            <mxPoint x="784.9999999999998" y="480" as="targetPoint" />
            <mxPoint x="429.9655172413793" y="400" as="sourcePoint" />
            <Array as="points">
              <mxPoint x="510" y="370" />
              <mxPoint x="510" y="570" />
            </Array>
          </mxGeometry>
        </mxCell>
        <mxCell id="jTc0iQcsf2U8J7RTjWwW-25" style="edgeStyle=orthogonalEdgeStyle;rounded=0;orthogonalLoop=1;jettySize=auto;html=1;entryX=0.574;entryY=0.998;entryDx=0;entryDy=0;entryPerimeter=0;" edge="1" parent="1" source="jTc0iQcsf2U8J7RTjWwW-22" target="jTc0iQcsf2U8J7RTjWwW-6">
          <mxGeometry relative="1" as="geometry" />
        </mxCell>
        <mxCell id="jTc0iQcsf2U8J7RTjWwW-22" value="Return FSP Output" style="shape=process;whiteSpace=wrap;html=1;backgroundOutline=1;" vertex="1" parent="1">
          <mxGeometry x="610" y="550" width="120" height="50" as="geometry" />
        </mxCell>
        <mxCell id="jTc0iQcsf2U8J7RTjWwW-27" value="FSP Simulation" style="swimlane;whiteSpace=wrap;html=1;" vertex="1" parent="1">
          <mxGeometry x="610" y="160" width="210" height="190" as="geometry" />
        </mxCell>
        <mxCell id="jTc0iQcsf2U8J7RTjWwW-28" value="1. Save Json Config in DB&lt;br&gt;2. Pull Latest SATCAT&lt;br&gt;3. Pull Lates Upcoming Launches&lt;br&gt;4. Run FSP&lt;br&gt;5. Store Outputs in FSP Outputs&lt;br&gt;6. Notify User" style="text;html=1;align=center;verticalAlign=middle;resizable=0;points=[];autosize=1;strokeColor=none;fillColor=none;" vertex="1" parent="jTc0iQcsf2U8J7RTjWwW-27">
          <mxGeometry x="5" y="45" width="200" height="100" as="geometry" />
        </mxCell>
        <mxCell id="jTc0iQcsf2U8J7RTjWwW-29" style="edgeStyle=orthogonalEdgeStyle;rounded=0;orthogonalLoop=1;jettySize=auto;html=1;entryX=0;entryY=0.5;entryDx=0;entryDy=0;" edge="1" parent="1" source="jTc0iQcsf2U8J7RTjWwW-15" target="jTc0iQcsf2U8J7RTjWwW-27">
          <mxGeometry relative="1" as="geometry">
            <mxPoint x="600" y="255" as="targetPoint" />
            <Array as="points">
              <mxPoint x="560" y="290" />
              <mxPoint x="560" y="255" />
            </Array>
          </mxGeometry>
        </mxCell>
      </root>
    </mxGraphModel>
  </diagram>
</mxfile>
